<?xml version="1.0" encoding="UTF-8"?>
<svg width="180" height="45" xmlns="http://www.w3.org/2000/svg" xmlns:xlink="http://www.w3.org/1999/xlink" xml:space="preserve" overflow="hidden"><defs><clipPath id="clip0h"><rect x="339" y="427" width="180" height="45"/></clipPath><linearGradient x1="0" y1="21.0785" x2="43.3931" y2="21.0785" gradientUnits="userSpaceOnUse" spreadMethod="pad" id="fill1h"><stop offset="0" stop-color="#005FFF"/><stop offset="0.1" stop-color="#1356F8"/><stop offset="0.31" stop-color="#453FE7"/><stop offset="0.61" stop-color="#951BCD"/><stop offset="0.82" stop-color="#D100B9"/><stop offset="1" stop-color="#D100B9"/></linearGradient></defs><g clip-path="url(#clip0h)" transform="translate(-339 -427)"><path d="M41.9249 34.4191C41.2034 34.0394 40.7604 33.5542 40.7604 32.8286 40.7604 32.1029 41.3258 31.508 42.0978 31.508 42.4902 31.508 42.8067 31.6177 43.1653 31.778 44.7348 32.6134 45.7094 32.7695 47.1101 32.7695 49.5909 32.7695 51.1773 31.4616 51.1773 28.8204L51.1773 28.1285C50.1394 28.6306 48.5699 29.0272 47.0595 29.0272 43.2243 29.0272 40.541 26.5717 40.1655 23.0319 40.0558 21.9602 40.0727 20.0574 40.1655 18.9858 40.5115 15.446 43.3087 12.9905 47.4097 12.9905 50.2364 12.9905 52.5611 13.9989 53.5189 14.5938 54.2108 15.003 54.3205 15.3658 54.3205 16.5472L54.3205 28.5546C54.3205 33.2462 51.4473 35.7017 47.2831 35.7017 44.9415 35.7017 43.3383 35.1828 41.9249 34.4276ZM47.4054 26.0949C48.7091 26.0949 50.3588 25.6857 51.1773 25.1203L51.1773 16.9522C50.3588 16.37 48.7091 15.9607 47.4054 15.9607 44.9077 15.9607 43.5112 17.3277 43.3045 19.3613 43.2117 20.26 43.2117 21.8168 43.3045 22.6986 43.4944 24.728 44.9077 26.0991 47.4054 26.0991Z" fill="white" transform="matrix(1 0 0 1.02163 339.303 427)"/><path d="M59.2357 24.8376C59.2357 22.1796 61.3115 19.7705 65.5221 19.7705 66.9355 19.7705 68.1632 19.9435 69.699 20.3697L69.699 18.9858C69.699 16.8931 68.5978 15.8848 65.9778 15.8848 64.7669 15.8848 63.5602 16.2139 62.8346 16.5008 62.4084 16.6738 62.0161 16.8172 61.6574 16.8172 60.9191 16.8172 60.32 16.235 60.32 15.4502 60.3031 14.7752 60.6786 14.2689 61.5477 13.9229 62.6152 13.4673 64.345 12.9947 66.2309 12.9947 70.3614 12.9947 72.7494 14.8975 72.7494 19.0364L72.7494 27.251C72.7494 27.8669 72.5933 28.1496 72.1503 28.4618 71.1925 29.1242 68.7708 30.1916 65.598 30.1916 61.5604 30.1916 59.2357 27.926 59.2357 24.8419ZM65.8976 27.5125C67.2477 27.5125 68.6611 27.1202 69.699 26.5675L69.699 22.745C68.2687 22.3189 67.1549 22.129 65.8807 22.129 63.4463 22.129 62.2523 23.3103 62.2523 24.8376 62.2523 26.5379 63.6362 27.5125 65.8976 27.5125Z" fill="white" transform="matrix(1 0 0 1.02163 339.303 427)"/><path d="M78.732 28.3606 78.732 8.86426C78.732 7.80949 79.3438 7.19351 80.3015 7.19351 81.2592 7.19351 81.871 7.80949 81.871 8.86426L81.871 28.3606C81.871 29.4153 81.2592 30.0313 80.3015 30.0313 79.3438 30.0313 78.732 29.4153 78.732 28.3606Z" fill="white" transform="matrix(1 0 0 1.02163 339.303 427)"/><path d="M86.9212 24.8376C86.9212 22.1796 88.997 19.7705 93.2076 19.7705 94.621 19.7705 95.8488 19.9435 97.3845 20.3697L97.3845 18.9858C97.3845 16.8931 96.2833 15.8848 93.6633 15.8848 92.4524 15.8848 91.2458 16.2139 90.5201 16.5008 90.0939 16.6738 89.7016 16.8172 89.343 16.8172 88.6046 16.8172 88.0055 16.235 88.0055 15.4502 87.9886 14.7752 88.3641 14.2689 89.2333 13.9229 90.3007 13.4673 92.0305 12.9947 93.9164 12.9947 98.0469 12.9947 100.435 14.8975 100.435 19.0364L100.435 27.251C100.435 27.8669 100.279 28.1496 99.8358 28.4618 98.8781 29.1242 96.4563 30.1916 93.2836 30.1916 89.2459 30.1916 86.9212 27.926 86.9212 24.8419ZM93.5789 27.5125C94.929 27.5125 96.3424 27.1202 97.3803 26.5675L97.3803 22.745C95.95 22.3189 94.8362 22.129 93.562 22.129 91.1276 22.129 89.9336 23.3103 89.9336 24.8376 89.9336 26.5379 91.3175 27.5125 93.5789 27.5125Z" fill="white" transform="matrix(1 0 0 1.02163 339.303 427)"/><path d="M109.417 11.2227 109.417 13.269 113.847 13.269C114.948 13.269 115.514 13.8343 115.514 14.733 115.514 15.6316 114.948 16.2139 113.847 16.2139L109.417 16.2139 109.417 24.6478C109.417 26.3945 110.139 27.1961 111.759 27.1961 112.653 27.1961 113.282 26.9894 113.784 26.8164 114.143 26.6898 114.413 26.5801 114.788 26.5801 115.48 26.5801 116.092 27.1624 116.092 27.9977 116.092 28.8331 115.619 29.255 114.835 29.5546 113.923 29.9005 112.793 30.1832 111.565 30.1832 108.375 30.1832 106.27 28.3099 106.27 24.9431L106.27 11.2227C106.27 10.168 106.869 9.55197 107.839 9.55197 108.81 9.55197 109.409 10.168 109.409 11.2227Z" fill="white" transform="matrix(1 0 0 1.02163 339.303 427)"/><path d="M123.935 8.9402C123.935 10.0583 123.117 10.8936 122.02 10.8936 120.923 10.8936 120.117 10.0583 120.117 8.9402 120.117 7.82215 120.948 7.02053 122.02 7.02053 123.091 7.02053 123.935 7.8559 123.935 8.9402ZM120.459 14.7963C120.459 13.7415 121.07 13.1255 122.028 13.1255 122.986 13.1255 123.598 13.7415 123.598 14.7963L123.598 28.3606C123.598 29.4153 122.998 30.0313 122.028 30.0313 121.058 30.0313 120.459 29.4153 120.459 28.3606L120.459 14.7963Z" fill="white" transform="matrix(1 0 0 1.02163 339.303 427)"/><path d="M132.386 23.4369C132.588 25.6266 134.052 27.1202 136.516 27.1202 138.246 27.1202 139.499 26.192 140.145 24.8545 140.364 24.5086 140.697 23.9263 141.541 23.9095 142.406 23.8926 143.064 24.4917 143.064 25.3735 143.064 25.8629 142.908 26.3017 142.609 26.8544 141.634 28.7276 139.499 30.1916 136.466 30.1916 132.365 30.1916 129.614 27.58 129.268 23.8504 129.141 22.6395 129.141 20.5637 129.268 19.3191 129.614 15.5895 132.361 12.9947 136.466 12.9947 139.499 12.9947 141.634 14.4587 142.609 16.3151 142.891 16.8678 143.064 17.3361 143.064 17.796 143.064 18.6947 142.402 19.2769 141.541 19.26 140.723 19.26 140.411 18.7073 140.145 18.3318 139.406 16.9016 138.259 16.0493 136.516 16.0493 134.065 16.0493 132.588 17.5429 132.386 19.7495 132.289 20.9139 132.289 22.2851 132.386 23.4454Z" fill="white" transform="matrix(1 0 0 1.02163 339.303 427)"/><path d="M147.672 23.7491C147.545 22.5551 147.545 20.6017 147.655 19.4204 148.018 15.6274 150.874 12.9821 154.962 12.9821 159.05 12.9821 161.924 15.6274 162.27 19.4204 162.379 20.6017 162.379 22.5509 162.27 23.7491 161.89 27.5252 159.05 30.1874 154.962 30.1874 150.874 30.1874 148.047 27.5294 147.672 23.7491ZM154.962 27.1159C157.35 27.1159 158.936 25.576 159.156 23.323 159.253 22.2049 159.253 20.9477 159.156 19.8296 158.936 17.5809 157.35 16.0367 154.962 16.0367 152.574 16.0367 151.005 17.5766 150.785 19.8296 150.676 20.9477 150.676 22.2049 150.785 23.323 150.992 25.5718 152.591 27.1159 154.962 27.1159Z" fill="white" transform="matrix(1 0 0 1.02163 339.303 427)"/><path d="M173.294 30.1874C170.826 30.1874 168.898 29.5124 167.67 28.5335 167.041 28.0905 166.851 27.6054 166.851 27.1159 166.851 26.4873 167.341 25.7321 168.138 25.7321 168.548 25.7321 168.893 25.8882 169.303 26.154 170.168 26.77 171.298 27.3185 173.323 27.3185 175.349 27.3185 176.323 26.3903 176.323 25.1161 176.323 24.1415 175.695 23.496 174.079 23.1163L171.644 22.5509C169.054 21.9349 167.307 20.4751 167.307 17.9859 167.307 14.8849 169.851 12.9821 173.26 12.9821 175.429 12.9821 177.078 13.6909 177.939 14.3195 178.551 14.7625 178.775 15.1549 178.775 15.7371 178.775 16.429 178.243 17.2011 177.424 17.2011 176.969 17.2011 176.623 17.045 176.218 16.775 175.682 16.3953 174.585 15.8763 173.294 15.8763 171.345 15.8763 170.341 16.6316 170.341 17.9226 170.341 18.8044 170.889 19.433 172.602 19.8254L174.851 20.3275C177.977 21.0531 179.391 22.61 179.391 25.0191 179.391 28.2129 176.859 30.179 173.294 30.179Z" fill="white" transform="matrix(1 0 0 1.02163 339.303 427)"/><path d="M59.164 41.0262C59.1133 40.3976 59.1218 39.8027 59.164 39.1783 59.2905 37.4906 60.6364 36.1574 62.4422 36.1574 63.6488 36.1574 64.7205 36.7354 65.1972 37.7606 65.2816 37.9463 65.3112 38.0897 65.3112 38.2205 65.3112 38.5285 65.096 38.7353 64.7964 38.7353 64.5306 38.7353 64.3787 38.596 64.2648 38.3893 63.9948 37.8028 63.3873 37.2333 62.4042 37.2333 61.2187 37.2333 60.3875 38.0729 60.2905 39.2837 60.2398 39.8238 60.2398 40.3722 60.2905 40.9165 60.3833 42.1189 61.2229 42.967 62.4042 42.967 63.2818 42.967 63.9611 42.4354 64.2311 41.832 64.3534 41.5831 64.5011 41.4186 64.7711 41.4186 65.0707 41.4186 65.2943 41.6127 65.2943 41.9164 65.2943 42.0472 65.2732 42.1696 65.1804 42.3847 64.7669 43.3551 63.6615 44.0428 62.438 44.0428 60.6322 44.0428 59.2905 42.7012 59.1598 41.022Z" fill="white" transform="matrix(1 0 0 1.02163 339.303 427)"/><path d="M70.0492 43.1062 72.2346 37.1826C72.4793 36.5118 72.8338 36.2122 73.416 36.2122 73.9982 36.2122 74.3484 36.5118 74.5889 37.1826L76.7617 43.102C76.8208 43.2707 76.8419 43.3678 76.8419 43.4733 76.8419 43.7602 76.614 43.9922 76.2934 43.9922 76.0445 43.9922 75.8504 43.8699 75.7407 43.5534L75.0319 41.5536 71.7621 41.5536 71.0575 43.5492C70.9478 43.8699 70.7537 43.9922 70.5006 43.9922 70.1884 43.9922 69.9606 43.7602 69.9606 43.4775 69.9606 43.3973 69.969 43.2918 70.0407 43.1062ZM74.6775 40.5537 73.5594 37.3978C73.5215 37.2839 73.4835 37.2459 73.4033 37.2459 73.3232 37.2459 73.2852 37.2839 73.2388 37.3978L72.1249 40.5537 74.6775 40.5537Z" fill="white" transform="matrix(1 0 0 1.02163 339.303 427)"/><path d="M87.6005 38.7437C87.6005 40.2288 86.6259 41.2203 85.0311 41.2203L83.1367 41.2203 83.1367 43.3973C83.1367 43.777 82.9215 43.9922 82.5798 43.9922 82.2381 43.9922 82.0229 43.777 82.0229 43.3973L82.0229 37.1236C82.0229 36.5667 82.3224 36.2629 82.8836 36.2629L85.069 36.2629C86.6048 36.2629 87.6005 37.2164 87.6005 38.7437ZM84.9973 40.1655C86.0015 40.1655 86.4782 39.5875 86.4782 38.7479 86.4782 37.9083 85.9972 37.3134 85.0015 37.3134L83.1367 37.3134 83.1367 40.1697 84.9973 40.1697Z" fill="white" transform="matrix(1 0 0 1.02163 339.303 427)"/><path d="M94.0514 36.8071 94.0514 43.3973C94.0514 43.777 93.8363 43.9922 93.4945 43.9922 93.1528 43.9922 92.9376 43.777 92.9376 43.3973L92.9376 36.8071C92.9376 36.4274 93.1528 36.2122 93.4945 36.2122 93.8363 36.2122 94.0514 36.4274 94.0514 36.8071Z" fill="white" transform="matrix(1 0 0 1.02163 339.303 427)"/><path d="M105.397 36.7776C105.397 37.1025 105.186 37.3092 104.835 37.3092L102.81 37.3092 102.81 43.3931C102.81 43.7728 102.595 43.988 102.253 43.988 101.912 43.988 101.696 43.7728 101.696 43.3931L101.696 37.3092 99.6501 37.3092C99.3042 37.3092 99.0932 37.1025 99.0932 36.7776 99.0932 36.4527 99.3042 36.2587 99.6501 36.2587L104.831 36.2587C105.181 36.2587 105.392 36.4654 105.392 36.7776Z" fill="white" transform="matrix(1 0 0 1.02163 339.303 427)"/><path d="M109.088 43.1062 111.274 37.1826C111.518 36.5118 111.873 36.2122 112.455 36.2122 113.037 36.2122 113.387 36.5118 113.628 37.1826L115.801 43.102C115.86 43.2707 115.881 43.3678 115.881 43.4733 115.881 43.7602 115.653 43.9922 115.332 43.9922 115.083 43.9922 114.889 43.8699 114.78 43.5534L114.071 41.5536 110.801 41.5536 110.097 43.5492C109.987 43.8699 109.793 43.9922 109.54 43.9922 109.227 43.9922 109 43.7602 109 43.4775 109 43.3973 109.008 43.2918 109.08 43.1062ZM113.717 40.5537 112.598 37.3978C112.56 37.2839 112.523 37.2459 112.442 37.2459 112.362 37.2459 112.324 37.2839 112.278 37.3978L111.164 40.5537 113.717 40.5537Z" fill="white" transform="matrix(1 0 0 1.02163 339.303 427)"/><path d="M126.099 43.4142C126.099 43.7391 125.889 43.9458 125.538 43.9458L121.918 43.9458C121.361 43.9458 121.058 43.642 121.058 43.0851L121.058 36.8114C121.058 36.4316 121.273 36.2165 121.615 36.2165 121.956 36.2165 122.172 36.4316 122.172 36.8114L122.172 42.8953 125.534 42.8953C125.884 42.8953 126.095 43.0935 126.095 43.4142Z" fill="white" transform="matrix(1 0 0 1.02163 339.303 427)"/><path d="M0.210953 20.7662C0.578012 21.2894 1.29947 21.4118 1.82264 21.0447L24.4073 5.04178 4.70848 40.4398C4.40049 40.9967 4.59878 41.7013 5.1557 42.0135 5.71262 42.3257 6.4172 42.1232 6.72519 41.5662L27.4155 4.38783 32.6303 28.1876C32.7695 28.812 33.3813 29.2086 34.0057 29.0694 34.6301 28.9301 35.0225 28.3142 34.8875 27.694L29.4406 2.82256 41.9122 6.51424C42.5198 6.69566 43.1653 6.34548 43.3467 5.73371 43.5281 5.12195 43.1779 4.47643 42.5662 4.29923L28.2171 0.0464097C28.2171 0.0464097 28.196 0.0464097 28.1834 0.0421907 28.1538 0.0337525 28.1285 0.0253144 28.099 0.0168763 28.0568 0.00843813 28.0146 0.00843813 27.9682 0.00421907 27.9429 0.00421907 27.9176-0.00421907 27.8923-0.00421907L27.8923-0.00421907C27.8416-0.00421907 27.7952-0.00421907 27.7446 0.00421907L10.4591 2.29517C9.82621 2.37955 9.3832 2.96178 9.46337 3.59465 9.54775 4.22751 10.13 4.67051 10.7586 4.59034L23.4032 2.91959 0.489412 19.1546C-0.0295335 19.5216-0.151886 20.2431 0.215172 20.7662Z" fill="url(#fill1h)" transform="matrix(1 0 0 1.02163 339.303 427)"/></g></svg>